<svg xmlns="http://www.w3.org/2000/svg" width="40" height="41" viewBox="0 0 40 41">
    <g fill="none" fill-rule="evenodd">
        <path fill="#FEFEFE" d="M31.619 38.948H6.707C3.003 38.948 0 35.897 0 32.133V6.816C0 3.052 3.003 0 6.707 0h24.912c3.704 0 6.706 3.052 6.706 6.816v25.317c0 3.764-3.002 6.815-6.706 6.815" transform="translate(1 1)"/>
        <path stroke="#BABBC4" stroke-width=".5" d="M31.619 38.948H6.707C3.003 38.948 0 35.897 0 32.133V6.816C0 3.052 3.003 0 6.707 0h24.912c3.704 0 6.706 3.052 6.706 6.816v25.317c0 3.764-3.002 6.815-6.706 6.815z" transform="translate(1 1)"/>
        <path fill="#FEFEFE" d="M31.619 38.948H6.707C3.003 38.948 0 35.897 0 32.133V6.816C0 3.052 3.003 0 6.707 0h24.912c3.704 0 6.706 3.052 6.706 6.816v25.317c0 3.764-3.002 6.815-6.706 6.815" transform="translate(1 1)"/>
        <path stroke="#BABBC4" stroke-width=".5" d="M31.619 38.948H6.707C3.003 38.948 0 35.897 0 32.133V6.816C0 3.052 3.003 0 6.707 0h24.912c3.704 0 6.706 3.052 6.706 6.816v25.317c0 3.764-3.002 6.815-6.706 6.815z" transform="translate(1 1)"/>
        <path fill="#0AD0F4" d="M6.667 33.126L18.671 26.678 18.671 5 6.667 13.095z" transform="translate(1 1)"/>
        <path fill="#161625" d="M30.337 33.126L18.333 26.678 18.333 5 30.337 13.095z" transform="translate(1 1)"/>
    </g>
</svg>
